<?xml version="1.0"?>
<svg xmlns="http://www.w3.org/2000/svg" xmlns:xlink="http://www.w3.org/1999/xlink" version="1.1" id="Capa_1" x="0px" y="0px" viewBox="0 0 204.8 204.8" style="enable-background:new 0 0 204.8 204.8;" xml:space="preserve" width="512px" height="512px"><g><g>
	<g>
		<path d="M85.333,58.027H37.547c-1.886,0-3.413,1.527-3.413,3.413s1.527,3.413,3.413,3.413h47.787c1.886,0,3.413-1.527,3.413-3.413    S87.219,58.027,85.333,58.027z" data-original="#000000" class="active-path" data-old_color="#000000" fill="#F9004D"/>
	</g>
</g><g>
	<g>
		<path d="M167.253,58.027h-47.787c-1.886,0-3.413,1.527-3.413,3.413s1.527,3.413,3.413,3.413h47.787    c1.886,0,3.413-1.527,3.413-3.413C170.667,59.554,169.139,58.027,167.253,58.027z" data-original="#000000" class="active-path" data-old_color="#000000" fill="#F9004D"/>
	</g>
</g><g>
	<g>
		<path d="M87.62,62.645c-0.399-1.843-2.246-3.023-4.057-2.616C50.797,67.115,24.39,92.715,16.28,125.245    c-0.454,1.83,0.661,3.683,2.487,4.14c0.28,0.067,0.556,0.101,0.829,0.101c1.531,0,2.923-1.036,3.311-2.589    c7.48-30.029,31.857-53.656,62.097-60.196C86.847,66.302,88.016,64.485,87.62,62.645z" data-original="#000000" class="active-path" data-old_color="#000000" fill="#F9004D"/>
	</g>
</g><g>
	<g>
		<path d="M189.998,125.247c-8.11-32.534-34.517-58.131-67.284-65.217c-1.84-0.406-3.657,0.773-4.057,2.616    c-0.398,1.84,0.773,3.657,2.616,4.057c30.24,6.54,54.613,30.165,62.097,60.196c0.386,1.551,1.78,2.587,3.309,2.587    c0.273,0,0.55-0.032,0.831-0.099C189.338,128.93,190.452,127.077,189.998,125.247z" data-original="#000000" class="active-path" data-old_color="#000000" fill="#F9004D"/>
	</g>
</g><g>
	<g>
		<path d="M184.32,122.88c-11.293,0-20.48,9.187-20.48,20.48c0,11.293,9.187,20.48,20.48,20.48c11.293,0,20.48-9.187,20.48-20.48    C204.8,132.067,195.613,122.88,184.32,122.88z M184.32,157.013c-7.53,0-13.653-6.124-13.653-13.653    c0-7.53,6.124-13.653,13.653-13.653c7.53,0,13.653,6.123,13.653,13.653C197.973,150.89,191.85,157.013,184.32,157.013z" data-original="#000000" class="active-path" data-old_color="#000000" fill="#F9004D"/>
	</g>
</g><g>
	<g>
		<path d="M20.48,122.88C9.187,122.88,0,132.067,0,143.36c0,11.293,9.187,20.48,20.48,20.48c11.293,0,20.48-9.187,20.48-20.48    C40.96,132.067,31.773,122.88,20.48,122.88z M20.48,157.013c-7.53,0-13.653-6.124-13.653-13.653    c0-7.53,6.123-13.653,13.653-13.653c7.53,0,13.653,6.123,13.653,13.653C34.133,150.89,28.01,157.013,20.48,157.013z" data-original="#000000" class="active-path" data-old_color="#000000" fill="#F9004D"/>
	</g>
</g><g>
	<g>
		<path d="M102.4,40.96c-11.293,0-20.48,9.187-20.48,20.48c0,11.293,9.187,20.48,20.48,20.48c11.293,0,20.48-9.187,20.48-20.48    C122.88,50.147,113.693,40.96,102.4,40.96z M102.4,75.093c-7.53,0-13.653-6.124-13.653-13.653c0-7.53,6.124-13.653,13.653-13.653    c7.53,0,13.653,6.124,13.653,13.653C116.053,68.97,109.93,75.093,102.4,75.093z" data-original="#000000" class="active-path" data-old_color="#000000" fill="#F9004D"/>
	</g>
</g><g>
	<g>
		<path d="M20.48,40.96C9.187,40.96,0,50.147,0,61.44c0,11.293,9.187,20.48,20.48,20.48c11.293,0,20.48-9.187,20.48-20.48    C40.96,50.147,31.773,40.96,20.48,40.96z M20.48,75.093c-7.53,0-13.653-6.124-13.653-13.653c0-7.53,6.123-13.653,13.653-13.653    c7.53,0,13.653,6.124,13.653,13.653C34.133,68.97,28.01,75.093,20.48,75.093z" data-original="#000000" class="active-path" data-old_color="#000000" fill="#F9004D"/>
	</g>
</g><g>
	<g>
		<path d="M184.32,40.96c-11.293,0-20.48,9.187-20.48,20.48c0,11.293,9.187,20.48,20.48,20.48c11.293,0,20.48-9.187,20.48-20.48    C204.8,50.147,195.613,40.96,184.32,40.96z M184.32,75.093c-7.53,0-13.653-6.124-13.653-13.653c0-7.53,6.124-13.653,13.653-13.653    c7.53,0,13.653,6.124,13.653,13.653C197.973,68.97,191.85,75.093,184.32,75.093z" data-original="#000000" class="active-path" data-old_color="#000000" fill="#F9004D"/>
	</g>
</g></g> </svg>
