<svg xmlns="http://www.w3.org/2000/svg" xmlns:xlink="http://www.w3.org/1999/xlink" width="971.44" height="662" viewBox="0 0 971.44 662"><defs><linearGradient id="a" x1="0.5" y1="1" x2="0.5" gradientUnits="objectBoundingBox"><stop offset="0" stop-color="gray" stop-opacity="0.251"/><stop offset="0.535" stop-color="gray" stop-opacity="0.122"/><stop offset="1" stop-color="gray" stop-opacity="0.102"/></linearGradient></defs><g transform="translate(-474 -209)"><g transform="translate(474 209)"><path d="M260.114,656.809c-6.985,26.6-31.459,43.22-31.459,43.22s-13.15-26.5-6.166-53.1,31.459-43.22,31.459-43.22S267.1,630.211,260.114,656.809Z" transform="translate(-114.28 -119)" fill="#3f3d56"/><path d="M249.52,651.183c-19.562,19.327-21.751,48.831-21.751,48.831s29.529-1.831,49.091-21.159,21.751-48.831,21.751-48.831S269.082,631.855,249.52,651.183Z" transform="translate(-114.28 -119)" fill="#0089ff"/><rect width="106.916" height="45.496" rx="15.198" transform="translate(68.053 573.241)" fill="#f9004d"/><g opacity="0.7"><path d="M1009.77,663.178V646.785H927.8v75.821a15.984,15.984,0,0,0,15.984,15.984h50a15.984,15.984,0,0,0,15.984-15.984V705.8a21.312,21.312,0,1,0,0-42.624Zm0,34.427v-26.23a13.115,13.115,0,0,1,0,26.23Z" transform="translate(-114.28 -119)" fill="url(#a)"/></g><path d="M1007.14,665.744A19.459,19.459,0,1,0,1026.6,685.2a19.459,19.459,0,0,0-19.459-19.459Zm0,31.433a11.975,11.975,0,1,1,11.975-11.975,11.975,11.975,0,0,1-11.975,11.975Z" transform="translate(-114.28 -119)" fill="#f9004d"/><path d="M1007.14,665.744A19.459,19.459,0,1,0,1026.6,685.2a19.459,19.459,0,0,0-19.459-19.459Zm0,31.433a11.975,11.975,0,1,1,11.975-11.975,11.975,11.975,0,0,1-11.975,11.975Z" transform="translate(-114.28 -119)" opacity="0.1"/><path d="M818.016,531.776h74.841v74.072a9.75,9.75,0,0,1-9.75,9.75H827.766a9.75,9.75,0,0,1-9.75-9.75Z" fill="#f9004d"/><rect width="971.44" height="32.93" transform="translate(0 615.598)" fill="#e0e0e0"/><g opacity="0.7"><path d="M753.249,514.265c-10.412-37.792-69.438-65.389-113.851-71.508.006-.279.021-.555.021-.836V409.571c.047-.017.1-.032.143-.049V408.3a110.939,110.939,0,0,0,67.011-70.232,119.868,119.868,0,0,0,7.15-15.416c4.741-1.726,8.322-9.545,8.322-18.939a33.07,33.07,0,0,0-1.338-9.5A121.506,121.506,0,0,0,721.6,279.8a120.179,120.179,0,0,0-39.7-89.382,23.45,23.45,0,0,0,.375-5.877c-1-15.527-17.589-26.076-33.133-26.781a32.8,32.8,0,0,0,5.532-34.637c-9.911,14.439-30.259,15.974-47.772,16.088,7.557-2.926,10.957-13.4,6.562-20.205-18.3,24.534-53.985,29.077-75.756,50.594a63.865,63.865,0,0,0-11.78,16.067,120.241,120.241,0,0,0-45.32,94.135,121.551,121.551,0,0,0,.872,14.289,32.964,32.964,0,0,0-1.38,9.625c0,9.437,3.615,17.28,8.388,18.958a119.882,119.882,0,0,0,7.183,15.467,110.917,110.917,0,0,0,66.541,69.985v33.8c0,.26.014.517.02.776-44.581,6.014-104.079,33.828-114.4,71.924-8.911,32.9-18.424,69.028-23.157,90.241,40.568,28.505,125.693,45.243,179.041,45.243,50.687,0,133.533-15.107,172.907-41.063C772.361,585.734,762.548,548.018,753.249,514.265Z" transform="translate(-114.28 -119)" fill="url(#a)"/></g><path d="M603.61,640.722c48.9,0,128.814-14.573,166.8-39.612-4.114-22.484-13.58-58.868-22.55-91.428-11.424-41.468-83.528-70.216-126.54-70.216H579.868c-43.146,0-115.353,28.915-126.634,70.56-8.6,31.736-17.773,66.589-22.338,87.052C470.031,624.575,552.148,640.722,603.61,640.722Z" transform="translate(-114.28 -119)" fill="#f9004d"/><circle cx="116.236" cy="116.236" r="116.236" transform="translate(370.57 48.261)" fill="#72351c"/><path d="M449.291,261.311H523.77v59.583a37.239,37.239,0,0,1-37.239,37.239h0a37.239,37.239,0,0,1-37.239-37.239V261.311Z" opacity="0.1"/><path d="M459.974,258.553h53.113a10.683,10.683,0,0,1,10.683,10.683v48.9a37.239,37.239,0,0,1-37.239,37.239h0a37.239,37.239,0,0,1-37.239-37.239v-48.9A10.683,10.683,0,0,1,459.974,258.553Z" fill="#fda57d"/><path d="M563.709,408.434a107.191,107.191,0,0,0,74.479.206v-9.149H563.709Z" transform="translate(-114.28 -119)" opacity="0.1"/><circle cx="106.753" cy="106.753" r="106.753" transform="translate(380.053 80.915)" fill="#fda57d"/><path d="M525.046,209.565s44.99,91.323,171.9,38.275L667.4,201.507l-52.376-18.8Z" transform="translate(-114.28 -119)" opacity="0.1"/><path d="M525.046,208.222s44.99,91.323,171.9,38.275L667.4,200.164l-52.376-18.8Z" transform="translate(-114.28 -119)" fill="#72351c"/><path d="M524.647,202.052a61.669,61.669,0,0,1,15.285-24.863c21-20.756,55.422-25.139,73.079-48.806,4.24,6.568.959,16.668-6.33,19.491,16.894-.11,36.523-1.59,46.084-15.519a31.642,31.642,0,0,1-5.336,33.413c14.994.681,30.993,10.857,31.962,25.835.646,9.979-5.611,19.426-13.811,25.149s-18.121,8.35-27.886,10.5C609.188,233.54,506.046,259.882,524.647,202.052Z" transform="translate(-114.28 -119)" fill="#72351c"/><path d="M707.836,307.6h-2.83l-55.062,49.019c-53.048-24.845-91.994,0-91.994,0l-57.749-47-5.823.732a106.744,106.744,0,1,0,213.47-2.746ZM600.924,375.423c-20.768,0-37.6-4.209-37.6-9.4s16.836-9.4,37.6-9.4,37.6,4.209,37.6,9.4S621.692,375.423,600.924,375.423Z" transform="translate(-114.28 -119)" fill="#72351c"/><ellipse cx="9.93" cy="18.62" rx="9.93" ry="18.62" transform="translate(370.081 168.946)" fill="#fda57d"/><ellipse cx="9.93" cy="18.62" rx="9.93" ry="18.62" transform="translate(583.615 168.946)" fill="#fda57d"/><g opacity="0.7"><rect width="413.124" height="237.894" rx="14.5" transform="translate(279.158 377.704)" fill="url(#a)"/></g><rect width="398.156" height="233.505" rx="26.835" transform="translate(286.642 382.093)" fill="#535461"/><circle cx="13.471" cy="13.471" r="13.471" transform="translate(472.249 485.375)" fill="#fff"/><rect width="889.115" height="13.471" transform="translate(41.163 648.529)" fill="#e0e0e0"/><rect width="889.115" height="4.49" transform="translate(41.163 648.529)" opacity="0.1"/><path d="M993.665,650.776V720A14.594,14.594,0,0,1,979.071,734.6h7.484A14.594,14.594,0,0,0,1001.149,720V650.776Z" transform="translate(-114.28 -119)" opacity="0.1"/><path d="M947.064,594.979c-1.262.216-2.686.557-3.305,1.678-.982,1.78.8,3.786,2.421,5.009,3,2.259,6.16,4.478,8.2,7.632s2.679,7.554.451,10.576c-2.91,3.946-9.852,4.795-10.524,9.652-.431,3.118,2.264,5.778,5,7.343,6.741,3.862,15.432,4.892,20.315,10.935,2.02-4.154,6.538-6.555,11.042-7.58s9.183-.949,13.749-1.644c1.474-.225,3.135-.675,3.794-2.012,1.276-2.59-2.362-5.7-1.106-8.3.956-1.979,3.763-1.826,5.813-2.618,3.338-1.291,4.715-5.587,3.767-9.038s-3.624-6.148-6.438-8.36c-7.584-5.96-16.7-9.464-25.927-11.985-4.29-1.172-9.326-3.011-13.781-3.189C956.227,592.907,951.322,594.251,947.064,594.979Z" transform="translate(-114.28 -119)" fill="#eee"/></g><g transform="translate(1187 393)" fill="#f8f9fc" stroke="#ececec" stroke-width="3"><ellipse cx="53.5" cy="54" rx="53.5" ry="54" stroke="none"/><ellipse cx="53.5" cy="54" rx="52" ry="52.5" fill="none"/></g><g transform="translate(1221.11 427.446)"><path d="M287.144,44.917a17.448,17.448,0,0,0-8.607-12.6h5.3a1.16,1.16,0,0,0,0-2.32H272.161A1.16,1.16,0,0,0,271,31.16c0,.028,0,.055,0,.082A1.159,1.159,0,0,0,272,32.473a15.181,15.181,0,0,1,12.85,12.773,1.161,1.161,0,0,0,1.147,1,1.143,1.143,0,0,0,.166-.012,1.16,1.16,0,0,0,.984-1.313Zm0,0" transform="translate(-250.041 -27.68)" fill="#57545c"/><path d="M47.119,30H35.441a1.16,1.16,0,1,0,0,2.32h5.3a17.448,17.448,0,0,0-8.607,12.6,1.16,1.16,0,0,0,.984,1.313,1.14,1.14,0,0,0,.166.012,1.161,1.161,0,0,0,1.147-1,15.181,15.181,0,0,1,12.85-12.773,1.159,1.159,0,0,0,.992-1.231c0-.027,0-.055,0-.082A1.16,1.16,0,0,0,47.119,30Zm0,0" transform="translate(-29.64 -27.68)" fill="#57545c"/><path d="M140.72,193.683a1.158,1.158,0,0,1-.615-.176l-8.666-5.416-8.666,5.416a1.16,1.16,0,0,1-1.7-1.4l9.281-24.363a1.16,1.16,0,0,1,2.169,0L141.8,192.11a1.16,1.16,0,0,1-1.084,1.573Zm-9.281-8.121a1.159,1.159,0,0,1,.615.176l6.353,3.97-6.968-18.29-6.968,18.29,6.353-3.97A1.16,1.16,0,0,1,131.439,185.562Zm0,0" transform="translate(-111.639 -154.084)" fill="#ff180b" stroke="#f8f9fc" stroke-width="1"/><path d="M427.8,216.961H423.16A1.16,1.16,0,0,1,422,215.8V211.16a1.16,1.16,0,0,1,1.16-1.16H427.8a1.16,1.16,0,0,1,1.16,1.16V215.8A1.16,1.16,0,0,1,427.8,216.961Zm-3.48-2.32h2.32v-2.32h-2.32Zm0,0" transform="translate(-389.362 -193.758)" fill="#0089ff"/><path d="M216.8,6.961H212.16A1.16,1.16,0,0,1,211,5.8V1.16A1.16,1.16,0,0,1,212.16,0H216.8a1.16,1.16,0,0,1,1.16,1.16V5.8A1.16,1.16,0,0,1,216.8,6.961Zm-3.48-2.32h2.32V2.32h-2.32Zm0,0" transform="translate(-194.681)" fill="#0089ff"/><path d="M425.48,6.961a3.48,3.48,0,1,1,3.48-3.48A3.484,3.484,0,0,1,425.48,6.961Zm0-4.641a1.16,1.16,0,1,0,1.16,1.16A1.162,1.162,0,0,0,425.48,2.32Zm0,0" transform="translate(-389.362)" fill="#0089ff"/><path d="M3.48,6.961a3.48,3.48,0,1,1,3.48-3.48A3.484,3.484,0,0,1,3.48,6.961Zm0-4.641a1.16,1.16,0,1,0,1.16,1.16A1.162,1.162,0,0,0,3.48,2.32Zm0,0" fill="#0089ff"/><path d="M5.8,216.961H1.16A1.16,1.16,0,0,1,0,215.8V211.16A1.16,1.16,0,0,1,1.16,210H5.8a1.16,1.16,0,0,1,1.16,1.16V215.8A1.16,1.16,0,0,1,5.8,216.961Zm-3.48-2.32h2.32v-2.32H2.32Zm0,0" transform="translate(0 -193.758)" fill="#0089ff"/></g><g transform="translate(584 471)" fill="#f8f9fc" stroke="#ececec" stroke-width="3"><ellipse cx="53.5" cy="54" rx="53.5" ry="54" stroke="none"/><ellipse cx="53.5" cy="54" rx="52" ry="52.5" fill="none"/></g><g transform="translate(612.753 505.446)"><g transform="translate(34.183 5.667)"><path d="M369.784,124.013,358.39,111.941a1.848,1.848,0,1,0-2.687,2.536l10.2,10.8-10.2,10.8a1.848,1.848,0,0,0,2.687,2.537l11.395-12.073A1.848,1.848,0,0,0,369.784,124.013Z" transform="translate(-355.199 -111.361)" fill="#f9004d" stroke="#f8f9fc" stroke-width="2"/></g><g transform="translate(0 5.667)"><g transform="translate(0 0)"><path d="M14.587,136.083l-10.2-10.8,10.2-10.8a1.848,1.848,0,0,0-2.688-2.536L.5,124.011a1.848,1.848,0,0,0,0,2.537l11.4,12.073a1.848,1.848,0,0,0,2.687-2.538Z" transform="translate(-0.001 -111.36)" fill="#f9004d" stroke="#f8f9fc" stroke-width="2"/></g></g><g transform="translate(20.079 0)"><path d="M216.184,52.5a1.85,1.85,0,0,0-2.106,1.548l-5.42,35.477a1.848,1.848,0,0,0,1.548,2.106,1.9,1.9,0,0,0,.281.021,1.848,1.848,0,0,0,1.824-1.569l5.42-35.477A1.848,1.848,0,0,0,216.184,52.5Z" transform="translate(-208.636 -52.478)" fill="#f9004d" stroke="#f8f9fc" stroke-width="2"/></g></g></g></svg>